<?xml version="1.0" encoding="utf-8"?>
<!-- Generator: Adobe Illustrator 18.0.0, SVG Export Plug-In . SVG Version: 6.00 Build 0)  -->
<!DOCTYPE svg PUBLIC "-//W3C//DTD SVG 1.1//EN" "http://www.w3.org/Graphics/SVG/1.1/DTD/svg11.dtd">
<svg version="1.1" id="Capa_1" xmlns="http://www.w3.org/2000/svg" xmlns:xlink="http://www.w3.org/1999/xlink" x="0px" y="0px"
	 viewBox="0 0 283.5 283.5" enable-background="new 0 0 283.5 283.5" xml:space="preserve">
<g>
	<g>
		<path fill="#FFFFFF" d="M140.8,31.4c15.3,0,27.7,14.7,27.7,32.9c0,18.2-12.4,50.3-27.7,50.3c-15.3,0-27.7-32.1-27.7-50.3
			C113.1,46.2,125.5,31.4,140.8,31.4 M140.8,13.7c-25.1,0-45.5,22.7-45.5,50.7c0,23.7,15.6,68,45.5,68c29.9,0,45.5-44.3,45.5-68
			C186.3,36.4,165.9,13.7,140.8,13.7L140.8,13.7z"/>
	</g>
	<g>
		<path fill="#FFFFFF" d="M176.2,178.6c17.5,12.6,29.1,46.8,29.1,73.4H76.4c0-26.6,11.6-60.8,29.1-73.4
			c10.4,6.6,22.5,10.4,35.3,10.4C153.7,189.1,165.8,185.2,176.2,178.6 M105.5,160.3c-3.6,0-7.3,1.1-10.3,3.3
			c-22.9,16.4-36.5,57.8-36.5,87.8c0,9.8,7.9,18.3,17.7,18.3h128.9c9.8,0,17.7-8.5,17.7-18.3c0-30-13.7-71.1-36.5-87.5
			c-3.1-2.2-6.7-3.5-10.3-3.5c-3.3,0-6.6,0.9-9.5,2.7c-7.9,5-16.8,7.6-25.8,7.6c-9,0-18-2.7-25.8-7.7
			C112.1,161.3,108.8,160.3,105.5,160.3L105.5,160.3z"/>
	</g>
	<g>
		<path fill="#FFFFFF" d="M95.6,242.6c-2.4,0-4.4-2-4.4-4.4c0-22.3,6.1-36.5,19.7-46.3c1.5-1.1,3.4-1.1,5-0.1c2.5,1.6,5.2,3,7.9,4.1
			c2.3,0.9,3.4,3.5,2.5,5.8c-0.9,2.3-3.5,3.4-5.8,2.5c-2.2-0.9-4.5-2-6.6-3.2c-9.6,8-13.7,19.3-13.7,37.4
			C100,240.6,98,242.6,95.6,242.6z"/>
	</g>
	<g>
		<path fill="#FFFFFF" d="M140.8,208c-1.8,0-3.5-0.1-5.2-0.2c-2.4-0.2-4.2-2.4-4-4.8c0.2-2.4,2.4-4.2,4.8-4c1.5,0.1,2.9,0.2,4.4,0.2
			c2.4,0,4.4,2,4.4,4.4C145.3,206,143.3,208,140.8,208z"/>
	</g>
	<g>
		<path fill="#FFFFFF" d="M274.2,260.9h-34.6c-4.9,0-8.9-4-8.9-8.9s4-8.9,8.9-8.9h25c-2.7-19.9-13.3-47.9-27.2-59
			c-1.8,0.5-3.8,1.1-6.2,1.7c-2,0.5-4.6,1.2-5.5,1.5c-4.6,1.7-9.7-0.6-11.4-5.2c-1.7-4.6,0.6-9.7,5.2-11.4c1.8-0.7,4.4-1.3,7.3-2.1
			c2.3-0.6,6.7-1.7,7.9-2.3c2.6-1.2,6-1.2,8.5,0.2c24.4,14.2,39.9,60.1,39.9,85.4C283.1,256.9,279.1,260.9,274.2,260.9z"/>
	</g>
	<g>
		<path fill="#FFFFFF" d="M26.7,260.9H9.3c-4.9,0-8.9-4-8.9-8.9c0-25.4,15.5-71.2,39.9-85.4c2.6-1.5,5.9-1.6,8.5-0.2
			c2.1,1.1,3.6,2.2,4.6,3.1c1,0.8,1.4,1.1,1.9,1.3c4.6,1.7,6.9,6.8,5.2,11.4s-6.8,6.9-11.4,5.2c-1.8-0.7-3.2-1.5-4.4-2.2
			c-13.3,11.7-23.4,38.7-26.1,58h7.9c4.9,0,8.9,4,8.9,8.9S31.6,260.9,26.7,260.9z"/>
	</g>
	<g>
		<path fill="#FFFFFF" d="M76.8,145.8c-1.1,0-2-0.1-2.9-0.2C51.6,144.9,38,107.2,38,86.6c0-23.1,16.4-41.8,36.6-41.8
			c4.9,0,8.9,4,8.9,8.9c0,4.9-4,8.9-8.9,8.9c-10.4,0-18.9,10.8-18.9,24.1c0,17.5,12,41.4,18.9,41.4c0.5,0,1,0,1.4,0.1
			c0.6,0.1,7.8,0.7,13.1-7.3c2.7-4.1,8.2-5.2,12.3-2.5c4.1,2.7,5.2,8.2,2.5,12.3C95.9,142.6,84.4,145.8,76.8,145.8z"/>
	</g>
	<g>
		<path fill="#FFFFFF" d="M204.1,145.8c-7.5,0-19-3.2-27.1-15.3c-2.7-4.1-1.6-9.6,2.5-12.3c4.1-2.7,9.6-1.6,12.3,2.5
			c5.5,8.3,13,7.3,13.1,7.3c0.5-0.1,1-0.1,1.4-0.1c6.8,0,18.9-23.9,18.9-41.4c0-13.3-8.5-24.1-18.9-24.1c-4.9,0-8.9-4-8.9-8.9
			c0-4.9,4-8.9,8.9-8.9c20.2,0,36.6,18.8,36.6,41.8c0,20.6-13.6,58.3-35.9,59.1C206.1,145.8,205.1,145.8,204.1,145.8z"/>
	</g>
</g>
</svg>
